<svg width="375" height="85" viewBox="0 0 375 85" fill="none" xmlns="http://www.w3.org/2000/svg">
<rect width="375" height="85" fill="#FEFEFE"/>
<path fill-rule="evenodd" clip-rule="evenodd" d="M60.8633 13H375V67.8232H60.8633C46.0271 67.8232 34 55.5506 34 40.4116C34 25.2726 46.0271 13 60.8633 13Z" fill="#FFBD37"/>
<path d="M113.931 51V28.28H123.563C124.608 28.28 125.568 28.504 126.443 28.952C127.339 29.3787 128.107 29.9547 128.747 30.68C129.387 31.384 129.888 32.1947 130.251 33.112C130.613 34.008 130.795 34.9147 130.795 35.832C130.795 36.792 130.624 37.7307 130.283 38.648C129.941 39.544 129.461 40.344 128.843 41.048C128.224 41.752 127.477 42.3173 126.603 42.744C125.728 43.1707 124.768 43.384 123.723 43.384H118.347V51H113.931ZM118.347 39.512H123.467C124.277 39.512 124.949 39.1813 125.483 38.52C126.037 37.8587 126.315 36.9627 126.315 35.832C126.315 35.256 126.229 34.744 126.059 34.296C125.888 33.8267 125.664 33.432 125.387 33.112C125.109 32.792 124.779 32.5573 124.395 32.408C124.032 32.2373 123.659 32.152 123.275 32.152H118.347V39.512ZM143.436 37.944C142.135 37.9653 140.972 38.2213 139.948 38.712C138.924 39.1813 138.188 39.896 137.74 40.856V51H133.452V34.232H137.388V37.816C137.687 37.24 138.039 36.728 138.444 36.28C138.849 35.8107 139.287 35.4053 139.756 35.064C140.225 34.7227 140.695 34.4667 141.164 34.296C141.655 34.104 142.124 34.008 142.572 34.008C142.807 34.008 142.977 34.008 143.084 34.008C143.212 34.008 143.329 34.0187 143.436 34.04V37.944ZM152.759 51.32C151.415 51.32 150.199 51.096 149.111 50.648C148.023 50.1787 147.095 49.5493 146.327 48.76C145.559 47.9707 144.962 47.0533 144.535 46.008C144.13 44.9627 143.927 43.864 143.927 42.712C143.927 41.5173 144.13 40.3973 144.535 39.352C144.941 38.2853 145.527 37.3573 146.295 36.568C147.063 35.7573 147.991 35.1173 149.079 34.648C150.189 34.1787 151.426 33.944 152.791 33.944C154.157 33.944 155.373 34.1787 156.439 34.648C157.527 35.1173 158.445 35.7467 159.191 36.536C159.959 37.3253 160.535 38.2427 160.919 39.288C161.325 40.3333 161.527 41.4213 161.527 42.552C161.527 42.8293 161.517 43.096 161.495 43.352C161.495 43.608 161.474 43.8213 161.431 43.992H148.471C148.535 44.6533 148.695 45.24 148.951 45.752C149.207 46.264 149.538 46.7013 149.943 47.064C150.349 47.4267 150.807 47.704 151.319 47.896C151.831 48.088 152.365 48.184 152.919 48.184C153.773 48.184 154.573 47.9813 155.319 47.576C156.087 47.1493 156.61 46.5947 156.887 45.912L160.567 46.936C159.949 48.216 158.957 49.272 157.591 50.104C156.247 50.9147 154.637 51.32 152.759 51.32ZM157.111 41.208C157.005 39.9493 156.535 38.9467 155.703 38.2C154.893 37.432 153.901 37.048 152.727 37.048C152.151 37.048 151.607 37.1547 151.095 37.368C150.605 37.56 150.167 37.8373 149.783 38.2C149.399 38.5627 149.079 39 148.823 39.512C148.589 40.024 148.45 40.5893 148.407 41.208H157.111ZM164.044 44.152V40.28H173.74V44.152H164.044ZM187.627 51.16C185.963 51.16 184.448 50.84 183.083 50.2C181.739 49.5387 180.576 48.6747 179.595 47.608C178.635 46.52 177.888 45.2827 177.355 43.896C176.821 42.5093 176.555 41.0907 176.555 39.64C176.555 38.1253 176.832 36.6747 177.387 35.288C177.963 33.9013 178.741 32.6747 179.723 31.608C180.725 30.5413 181.909 29.6987 183.275 29.08C184.64 28.44 186.123 28.12 187.723 28.12C189.365 28.12 190.859 28.4613 192.203 29.144C193.568 29.8053 194.731 30.68 195.691 31.768C196.651 32.856 197.397 34.0933 197.931 35.48C198.464 36.8667 198.731 38.2747 198.731 39.704C198.731 41.2187 198.453 42.6693 197.899 44.056C197.344 45.4213 196.576 46.6373 195.595 47.704C194.613 48.7493 193.44 49.592 192.075 50.232C190.709 50.8507 189.227 51.16 187.627 51.16ZM181.035 39.64C181.035 40.6213 181.184 41.5707 181.483 42.488C181.781 43.4053 182.208 44.216 182.763 44.92C183.339 45.624 184.032 46.1893 184.843 46.616C185.675 47.0427 186.613 47.256 187.659 47.256C188.725 47.256 189.664 47.0427 190.475 46.616C191.307 46.168 192 45.5813 192.555 44.856C193.131 44.1307 193.557 43.32 193.835 42.424C194.133 41.5067 194.283 40.5787 194.283 39.64C194.283 38.6587 194.123 37.7093 193.803 36.792C193.504 35.8747 193.067 35.064 192.491 34.36C191.936 33.656 191.243 33.1013 190.411 32.696C189.6 32.2693 188.683 32.056 187.659 32.056C186.592 32.056 185.643 32.28 184.811 32.728C183.979 33.1547 183.285 33.7307 182.731 34.456C182.176 35.16 181.749 35.9707 181.451 36.888C181.173 37.784 181.035 38.7013 181.035 39.64ZM211.686 37.944C210.385 37.9653 209.222 38.2213 208.198 38.712C207.174 39.1813 206.438 39.896 205.99 40.856V51H201.702V34.232H205.638V37.816C205.937 37.24 206.289 36.728 206.694 36.28C207.099 35.8107 207.537 35.4053 208.006 35.064C208.475 34.7227 208.945 34.4667 209.414 34.296C209.905 34.104 210.374 34.008 210.822 34.008C211.057 34.008 211.227 34.008 211.334 34.008C211.462 34.008 211.579 34.0187 211.686 34.04V37.944ZM220.177 51.32C219.025 51.32 217.959 51.096 216.977 50.648C215.996 50.2 215.153 49.5813 214.449 48.792C213.745 48.0027 213.191 47.0853 212.785 46.04C212.401 44.9733 212.209 43.832 212.209 42.616C212.209 41.4 212.391 40.2693 212.753 39.224C213.137 38.1787 213.66 37.2613 214.321 36.472C214.983 35.6827 215.772 35.064 216.689 34.616C217.607 34.168 218.609 33.944 219.697 33.944C220.935 33.944 222.044 34.2427 223.025 34.84C224.028 35.4373 224.807 36.216 225.361 37.176V27.64H229.649V46.072C229.649 46.52 229.724 46.84 229.873 47.032C230.023 47.224 230.279 47.3307 230.641 47.352V51C229.895 51.1493 229.287 51.224 228.817 51.224C228.049 51.224 227.42 51.032 226.929 50.648C226.439 50.264 226.161 49.7627 226.097 49.144L226.001 48.088C225.383 49.1547 224.54 49.9653 223.473 50.52C222.428 51.0533 221.329 51.32 220.177 51.32ZM221.297 47.672C221.703 47.672 222.119 47.608 222.545 47.48C222.972 47.3307 223.367 47.128 223.729 46.872C224.092 46.616 224.412 46.3173 224.689 45.976C224.988 45.6347 225.212 45.2613 225.361 44.856V40.856C225.191 40.3867 224.945 39.96 224.625 39.576C224.327 39.1707 223.975 38.8293 223.569 38.552C223.185 38.2533 222.769 38.0187 222.321 37.848C221.895 37.6773 221.468 37.592 221.041 37.592C220.401 37.592 219.804 37.7307 219.249 38.008C218.716 38.2853 218.257 38.6693 217.873 39.16C217.489 39.6293 217.191 40.1733 216.977 40.792C216.764 41.4107 216.657 42.0507 216.657 42.712C216.657 43.416 216.775 44.0667 217.009 44.664C217.244 45.2613 217.564 45.784 217.969 46.232C218.375 46.68 218.855 47.032 219.409 47.288C219.985 47.544 220.615 47.672 221.297 47.672ZM241.634 51.32C240.29 51.32 239.074 51.096 237.986 50.648C236.898 50.1787 235.97 49.5493 235.202 48.76C234.434 47.9707 233.837 47.0533 233.41 46.008C233.005 44.9627 232.802 43.864 232.802 42.712C232.802 41.5173 233.005 40.3973 233.41 39.352C233.816 38.2853 234.402 37.3573 235.17 36.568C235.938 35.7573 236.866 35.1173 237.954 34.648C239.064 34.1787 240.301 33.944 241.666 33.944C243.032 33.944 244.248 34.1787 245.314 34.648C246.402 35.1173 247.32 35.7467 248.066 36.536C248.834 37.3253 249.41 38.2427 249.794 39.288C250.2 40.3333 250.402 41.4213 250.402 42.552C250.402 42.8293 250.392 43.096 250.37 43.352C250.37 43.608 250.349 43.8213 250.306 43.992H237.346C237.41 44.6533 237.57 45.24 237.826 45.752C238.082 46.264 238.413 46.7013 238.818 47.064C239.224 47.4267 239.682 47.704 240.194 47.896C240.706 48.088 241.24 48.184 241.794 48.184C242.648 48.184 243.448 47.9813 244.194 47.576C244.962 47.1493 245.485 46.5947 245.762 45.912L249.442 46.936C248.824 48.216 247.832 49.272 246.466 50.104C245.122 50.9147 243.512 51.32 241.634 51.32ZM245.986 41.208C245.88 39.9493 245.41 38.9467 244.578 38.2C243.768 37.432 242.776 37.048 241.602 37.048C241.026 37.048 240.482 37.1547 239.97 37.368C239.48 37.56 239.042 37.8373 238.658 38.2C238.274 38.5627 237.954 39 237.698 39.512C237.464 40.024 237.325 40.5893 237.282 41.208H245.986ZM262.999 37.944C261.697 37.9653 260.535 38.2213 259.51 38.712C258.487 39.1813 257.751 39.896 257.303 40.856V51H253.015V34.232H256.951V37.816C257.249 37.24 257.601 36.728 258.007 36.28C258.412 35.8107 258.849 35.4053 259.319 35.064C259.788 34.7227 260.257 34.4667 260.727 34.296C261.217 34.104 261.687 34.008 262.135 34.008C262.369 34.008 262.54 34.008 262.647 34.008C262.775 34.008 262.892 34.0187 262.999 34.04V37.944Z" fill="#171938"/>
</svg>
